<svg xmlns="http://www.w3.org/2000/svg" viewBox="0 0 64 64">
  <circle cx="32" cy="32" r="30" fill="#f7931a"/>
  <path d="M44.4 31.3c.6-4.2-2.6-6.4-7-7.9l1.4-5.7-3.5-.9-1.4 5.5c-.9-.2-1.8-.4-2.7-.7l1.4-5.6-3.5-.9-1.4 5.7c-.7-.2-1.5-.4-2.2-.5l0 0-4.8-1.2-.9 3.7s2.6.6 2.5.6c1.4.4 1.7 1.3 1.6 2l-1.6 6.6c.1 0 .2.1.4.1-.1 0-.2-.1-.4-.1l-2.3 9.2c-.2.4-.6 1.1-1.6.8 0 .1-2.5-.6-2.5-.6l-1.7 4 4.5 1.1c.8.2 1.7.4 2.5.6l-1.4 5.8 3.5.9 1.4-5.7c1 .3 1.9.5 2.8.7l-1.4 5.7 3.5.9 1.4-5.8c6 1.1 10.5.7 12.4-4.7 1.5-4.4-.1-6.9-3.2-8.5 2.3-.5 4-2.1 4.5-5.3zm-8 11.6c-1.1 4.4-8.3 2-10.7 1.4l1.9-7.6c2.4.6 10 1.8 8.8 6.2zm1.1-11.3c-1 3.9-7 1.9-9 1.4l1.7-6.9c1.9.5 8.1 1.4 7.2 5.5z" fill="#ffffff"/>
</svg> 